<?xml version="1.0" encoding="UTF-8"?>
<svg id="LANDING" xmlns="http://www.w3.org/2000/svg" xmlns:xlink="http://www.w3.org/1999/xlink" viewBox="0 0 750 500">
  <defs>
    <style>
      .cls-1 {
        clip-path: url(#clippath);
      }

      .cls-2 {
        fill: none;
      }

      .cls-3 {
        fill: #2d2d2d;
      }

      .cls-4 {
        fill: #5b5b5b;
      }

      .cls-5 {
        fill: #919191;
      }
    </style>
    <clipPath id="clippath">
      <rect class="cls-2" y="0" width="750" height="500"/>
    </clipPath>
  </defs>
  <g class="cls-1">
    <rect class="cls-3" y="0" width="750" height="500"/>
    <path class="cls-4" d="M28.08,360.73c-38.31-21.81-76.77-47.35-100.42-86.41-3.56-7.32-6.73-14.9-9.51-22.66-24.98-69.87-17.8-155.13,30.23-213.52,4.91-5.86,10.16-11.22,15.7-16.06C2.89-11.86,55.9-20.68,103.92,1.12c24.36,11.06,41.5,28.7,49.78,49.37,2.76,6.89,4.53,14.11,5.23,21.54,.23,7.7-.69,15.19-4.11,22.38-11.92,28.13-39.24,52.6-40.02,83.27-.16,6.13,.75,12.52,3.05,19.23,10.36,31.21,39.76,52.08,40.45,87.68-.14,6.66-.95,13.19-2.36,19.49-1.41,6.3-3.43,12.38-5.97,18.14-15.26,42.67-68.31,61.51-108.35,44.25-4.49-1.58-9.02-3.5-13.53-5.73Z"/>
    <path class="cls-4" d="M-9.41,530.57c30.13,28.58,63.66,56.27,105.33,66.92,7.57,1.21,15.27,2,23.02,2.38,69.81,3.43,144.71-26.34,184.22-85.59,3.94-6.02,7.33-12.22,10.19-18.54,19.98-44.25,13.45-94.44-19.32-131.78-16.62-18.94-37.21-29.57-58.1-31.39-6.96-.61-13.96-.23-20.85,1.17-7,1.9-13.51,4.78-19.05,9.82-22.1,18.43-36.69,49.74-64.13,58.83-5.49,1.82-11.49,2.74-18.17,2.5-30.96-.82-57.81-21.61-90.08-12.51-5.97,1.95-11.63,4.46-16.92,7.45-5.3,2.99-10.22,6.47-14.72,10.34-34.3,25.41-36.78,78.38-10.29,109.77,2.65,3.62,5.62,7.17,8.86,10.63Z"/>
    <path class="cls-4" d="M430.24-45.87c3.36-2.04,6.81-3.93,10.32-5.66,59-29.06,132.76-42.07,195.33-13.36,53.49,24.54,100.76,84.14,117.4,141.59,10.95,37.82,6.32,75.9-11.6,107.12-3.58,6.24-7.7,12.21-12.33,17.85-23.16,28.95-62.05,45.43-97.72,31.11-34.52-14.46-49.28-48.89-74.85-76.14-9.34-9.37-19.69-17.45-33.06-21.65-6.22-1.86-12.89-3.38-19.83-4.74-48.56-9.5-110.12-11.16-121.18-69.42-1.28-5.45-2.14-11-2.53-16.55-.79-11.11,.26-22.27,3.34-32.87,7.18-24.72,25.18-44.19,46.71-57.27Z"/>
    <path class="cls-5" d="M398.98-54.67c2.67-2.89,5.47-5.64,8.37-8.27,48.79-44.11,116.16-76.82,184.21-66.34,58.17,8.95,119.95,53.33,151.69,104.03,20.89,33.37,26.86,71.27,18.18,106.2-1.74,6.99-4.06,13.85-6.97,20.54-14.35,34.18-47.24,60.68-85.47,56.68-37.16-4.45-60.78-33.52-92.84-52.73-11.55-6.46-23.71-11.39-37.73-11.77-6.49-.09-13.33,.28-20.37,.87-49.31,4.16-108.97,19.42-135.56-33.59-2.73-4.89-5.06-9.99-6.97-15.23-3.8-10.47-5.85-21.49-5.79-32.53,.14-25.75,12.12-49.39,29.24-67.87Z"/>
    <path class="cls-4" d="M860.12,364.67c.14,4.94,.06,9.88-.22,14.78-4.76,82.49-35.54,171.08-104.02,221.5-58.54,43.1-150.67,57.58-221.97,39.97-75.09-18.55-154.47-81.64-157.26-159.65-1.24-34.62,17.65-59.71,44.96-76.25,6.83-4.14,14.18-7.74,21.88-10.82,34.7-16.08,72.05-5.47,108.11-1.69,62.18,7.33,79.39-62.38,100.11-106.44,3.14-5.73,6.65-10.94,10.64-15.58,4-4.64,8.47-8.72,13.6-12.03,46.66-30.15,113.7-20.26,151.42,19.58,22,23.23,31.85,54.99,32.75,86.63Z"/>
    <path class="cls-5" d="M920.05,365.99c.31,4.59,.42,9.19,.33,13.76-1.45,76.9-26.89,160.41-88.77,209.78-52.9,42.2-138.07,58.99-205.03,45.18-70.52-14.54-146.62-70.37-152.03-142.83-2.4-32.16,14.27-56.17,39.07-72.55,6.2-4.09,12.91-7.71,19.96-10.86,31.7-16.21,66.82-7.69,100.5-5.47,58.1,4.57,71.59-60.88,89.28-102.62,2.72-5.44,5.79-10.41,9.34-14.88,3.55-4.46,7.57-8.41,12.22-11.68,42.31-29.73,105.03-22.95,141.55,12.75,21.3,20.82,31.6,50,33.59,79.4Z"/>
    <path class="cls-5" d="M227.7,574.25c-3.74,2.33-7.57,4.5-11.47,6.48-65.61,33.46-147.64,49.64-217.25,19.63-59.51-25.65-112.11-90.03-130.64-152.81-19.52-66.13-6.69-155.6,52.08-192.85,52.17-33.07,111.21,13,141.12,62.45,9.07,14.99,21.2,44.4,34.77,55.36,33.57,27.11,91.38-7.41,130.24,12.23,44.2,22.33,66.76,78.37,53.07,125.33-7.98,27.38-27.98,49.25-51.92,64.19Z"/>
    <path class="cls-5" d="M-222.02-6.37c.81-5.65,1.88-11.25,3.17-16.78,21.83-92.9,75.25-187.55,165.11-231.2,76.81-37.31,187.17-35.33,266.89-1.02,83.96,36.14,131.9,117.64,119.76,206.95-10.78,79.29-71.69,128.5-147.53,116.61-22.99-3.6-63.27-16.27-85.99-12.04-56.2,10.45-74.38,73.27-127.48,95.22-60.39,24.96-136.67,.28-172.82-52.61-21.08-30.84-26.3-68.95-21.11-105.14Z"/>
  </g>
</svg>